<svg width="20" height="21" viewBox="0 0 20 21" fill="none" xmlns="http://www.w3.org/2000/svg">
<path d="M9.83333 9.58333C7.94166 9.09167 7.33333 8.58333 7.33333 7.79167C7.33333 6.88333 8.175 6.25 9.58333 6.25C11.0667 6.25 11.6167 6.95833 11.6667 8H13.5083C13.45 6.56667 12.575 5.25 10.8333 4.825V3H8.33333V4.8C6.71666 5.15 5.41666 6.2 5.41666 7.80833C5.41666 9.73333 7.00833 10.6917 9.33333 11.25C11.4167 11.75 11.8333 12.4833 11.8333 13.2583C11.8333 13.8333 11.425 14.75 9.58333 14.75C7.86666 14.75 7.19166 13.9833 7.1 13H5.26666C5.36666 14.825 6.73333 15.85 8.33333 16.1917V18H10.8333V16.2083C12.4583 15.9 13.75 14.9583 13.75 13.25C13.75 10.8833 11.725 10.075 9.83333 9.58333Z" fill="#11132A"/>
</svg>
