<svg width="24" height="24" viewBox="0 0 24 24" fill="none" xmlns="http://www.w3.org/2000/svg">
<path d="M12 11C10.9 11 9.99996 11.9 9.99996 13C9.99996 14.1 10.9 15 12 15C13.1 15 14 14.1 14 13C14 11.9 13.1 11 12 11ZM18 13C18 9.43998 14.89 6.59998 11.25 7.04998C8.62996 7.36998 6.46996 9.45998 6.06996 12.07C5.73996 14.22 6.55996 16.18 7.99996 17.47C8.47996 17.9 9.22996 17.8 9.55996 17.24L9.56996 17.23C9.80996 16.81 9.70996 16.3 9.34996 15.97C8.31996 15.04 7.75996 13.6 8.12996 12.03C8.45996 10.61 9.60996 9.45998 11.03 9.11998C13.65 8.48998 16 10.47 16 13C16 14.18 15.48 15.23 14.67 15.96C14.31 16.28 14.2 16.8 14.44 17.22L14.45 17.23C14.76 17.76 15.48 17.92 15.95 17.51C17.2 16.41 18 14.8 18 13ZM10.83 3.06998C6.20996 3.58998 2.47996 7.39998 2.04996 12.03C1.69996 15.73 3.36996 19.05 6.06996 21.04C6.54996 21.39 7.22996 21.24 7.52996 20.73C7.77996 20.3 7.66996 19.74 7.26996 19.44C4.98996 17.75 3.61996 14.89 4.10996 11.74C4.64996 8.23998 7.56996 5.44998 11.09 5.05998C15.91 4.50998 20 8.27998 20 13C20 15.65 18.71 17.98 16.73 19.44C16.33 19.74 16.22 20.29 16.47 20.73C16.77 21.25 17.45 21.39 17.93 21.04C20.4 19.22 22 16.3 22 13C22 7.08998 16.87 2.37998 10.83 3.06998Z" fill="white"/>
</svg>
